<svg width="35" height="31" viewBox="0 0 35 31" fill="none" xmlns="http://www.w3.org/2000/svg">
<path d="M17.6417 7.4285C12.8715 7.4285 9.02373 10.8626 9.02373 15.1201C9.02373 19.3776 12.8715 22.8117 17.6417 22.8117C22.412 22.8117 26.2597 19.3776 26.2597 15.1201C26.2597 10.8626 22.412 7.4285 17.6417 7.4285ZM17.6417 20.1207C14.5591 20.1207 12.0389 17.8781 12.0389 15.1201C12.0389 12.3621 14.5516 10.1196 17.6417 10.1196C20.7319 10.1196 23.2446 12.3621 23.2446 15.1201C23.2446 17.8781 20.7244 20.1207 17.6417 20.1207ZM28.6224 7.11387C28.6224 8.1113 27.7223 8.90791 26.6122 8.90791C25.4947 8.90791 24.6021 8.10461 24.6021 7.11387C24.6021 6.12313 25.5022 5.31983 26.6122 5.31983C27.7223 5.31983 28.6224 6.12313 28.6224 7.11387ZM34.3302 8.93469C34.2027 6.53148 33.5877 4.40272 31.615 2.64885C29.6499 0.894969 27.2648 0.346046 24.5721 0.225551C21.797 0.0849727 13.479 0.0849727 10.7038 0.225551C8.01868 0.339352 5.63354 0.888275 3.66093 2.64215C1.68831 4.39603 1.08078 6.52478 0.945769 8.92799C0.788259 11.4048 0.788259 18.8287 0.945769 21.3055C1.07328 23.7088 1.68831 25.8375 3.66093 27.5914C5.63354 29.3453 8.01118 29.8942 10.7038 30.0147C13.479 30.1553 21.797 30.1553 24.5721 30.0147C27.2648 29.9009 29.6499 29.352 31.615 27.5914C33.5802 25.8375 34.1952 23.7088 34.3302 21.3055C34.4877 18.8287 34.4877 11.4115 34.3302 8.93469ZM30.745 23.9631C30.16 25.2752 29.0274 26.286 27.5498 26.8149C25.3372 27.5981 20.0869 27.4173 17.6417 27.4173C15.1966 27.4173 9.93879 27.5914 7.73366 26.8149C6.26358 26.2927 5.13101 25.2819 4.53848 23.9631C3.66093 21.9884 3.86344 17.3024 3.86344 15.1201C3.86344 12.9378 3.66843 8.24519 4.53848 6.2771C5.12351 4.96503 6.25607 3.95421 7.73366 3.42537C9.94629 2.64215 15.1966 2.8229 17.6417 2.8229C20.0869 2.8229 25.3447 2.64885 27.5498 3.42537C29.0199 3.94752 30.1525 4.95834 30.745 6.2771C31.6225 8.25188 31.42 12.9378 31.42 15.1201C31.42 17.3024 31.6225 21.995 30.745 23.9631Z" fill="black"/>
</svg>
