<svg width="31" height="30" viewBox="0 0 31 30" fill="none" xmlns="http://www.w3.org/2000/svg">
<g clip-path="url(#clip0_2_41)">
<path d="M0.748962 9.375L0.748963 20.625C0.748963 25.8019 4.94126 30 10.111 30H21.3454C26.5151 30 30.7074 25.8019 30.7074 20.625V9.375C30.7074 4.19813 26.5151 -2.26287e-07 21.3454 0L10.111 4.9175e-07C4.94126 7.1804e-07 0.748962 4.19813 0.748962 9.375ZM21.3454 2.8125C24.959 2.8125 27.8988 5.75625 27.8988 9.375V20.625C27.8988 24.2437 24.959 27.1875 21.3454 27.1875H10.111C6.49723 27.1875 3.55756 24.2437 3.55756 20.625V9.375C3.55756 5.75625 6.49723 2.8125 10.111 2.8125H21.3454Z" fill="#7DAFC3"/>
<path d="M8.23859 15C8.23859 19.1419 11.592 22.5 15.7282 22.5C19.8643 22.5 23.2178 19.1419 23.2178 15C23.2178 10.8581 19.8643 7.5 15.7282 7.5C11.592 7.5 8.23859 10.8581 8.23859 15ZM20.4092 15C20.4092 17.5837 18.3083 19.6875 15.7282 19.6875C13.1462 19.6875 11.0472 17.5838 11.0472 15C11.0472 12.4163 13.1462 10.3125 15.7282 10.3125C18.3083 10.3125 20.4092 12.4162 20.4092 15Z" fill="#7DAFC3"/>
<path d="M8.6748 6.93715C8.6748 6.38521 8.22799 5.93777 7.67682 5.93777C7.12564 5.93777 6.67883 6.38521 6.67883 6.93715C6.67883 7.48909 7.12564 7.93652 7.67682 7.93652C8.22799 7.93652 8.6748 7.48909 8.6748 6.93715Z" fill="#7DAFC3"/>
</g>
<defs>
<clipPath id="clip0_2_41">
<rect width="29.9584" height="30" fill="white" transform="translate(0.748962)"/>
</clipPath>
</defs>
</svg>
