<svg width="167" height="27" viewBox="0 0 167 27" fill="none" xmlns="http://www.w3.org/2000/svg">
<path d="M0.85504 2.774V1.812H6.78304L7.01704 2.514L12.841 16.97C14.9557 12.3767 16.923 7.558 18.743 2.514L18.977 1.812H24.905V2.774C23.449 2.826 22.5737 2.982 22.279 3.242C22.1577 3.36333 22.097 3.48467 22.097 3.606C22.097 3.72733 22.2617 8.52 22.591 17.984L22.617 18.712C22.669 19.2493 22.825 19.596 23.085 19.752C23.3624 19.8907 23.9084 19.986 24.723 20.038V21H17.521V20.038C18.041 20.0033 18.4397 19.96 18.717 19.908C19.0117 19.856 19.2717 19.7433 19.497 19.57C19.7397 19.3967 19.861 19.154 19.861 18.842C19.809 15.4967 19.6184 11.042 19.289 5.478C16.8797 10.7647 14.7044 15.9387 12.763 21H11.749L5.09304 5.374C4.83304 9.846 4.70304 14.3353 4.70304 18.842C4.70304 19.466 5.47437 19.8473 7.01704 19.986V21H0.88104V20.064C1.66104 19.9773 2.19837 19.752 2.49304 19.388C2.78771 19.0067 2.96971 18.4 3.03904 17.568C3.38571 12.2293 3.58504 8.08667 3.63704 5.14L3.66304 3.684C3.66304 3.35467 3.42904 3.138 2.96104 3.034C2.51037 2.91267 1.80837 2.826 0.85504 2.774ZM36.3743 10.808L36.2703 17.672C36.2703 18.1053 36.461 18.634 36.8423 19.258C37.241 19.8647 37.4403 20.22 37.4403 20.324C37.4403 20.4107 37.3623 20.48 37.2063 20.532C35.993 20.9307 35.3083 21.13 35.1523 21.13C35.0136 21.13 34.8663 21.0087 34.7103 20.766C34.5716 20.506 34.4416 20.194 34.3203 19.83C34.199 19.466 34.1296 19.2753 34.1123 19.258C33.8523 19.4313 33.5316 19.648 33.1503 19.908C32.769 20.168 32.5003 20.35 32.3443 20.454C32.2056 20.5407 31.9976 20.6533 31.7203 20.792C31.4603 20.9307 31.2263 21.026 31.0183 21.078C30.533 21.1993 29.8743 21.26 29.0423 21.26C28.2276 21.26 27.621 20.9307 27.2223 20.272C26.8236 19.6133 26.6243 18.894 26.6243 18.114C26.6243 17.334 26.685 16.71 26.8063 16.242C26.9276 15.774 27.127 15.384 27.4043 15.072C27.6816 14.76 27.959 14.5 28.2363 14.292C28.5136 14.084 28.9036 13.9107 29.4063 13.772C29.9263 13.616 30.3683 13.5033 30.7323 13.434C31.1136 13.3473 31.6423 13.2433 32.3183 13.122C32.9943 12.9833 33.5403 12.8707 33.9563 12.784L33.9823 11.224C33.9823 10.4267 33.6963 9.85467 33.1243 9.508C32.5523 9.16133 31.859 8.988 31.0443 8.988C30.247 8.988 29.6923 9.196 29.3803 9.612C29.0683 10.0107 28.7303 10.8773 28.3663 12.212L27.3003 12.108C27.3003 10.6 27.5603 9.54267 28.0803 8.936C28.7043 8.208 29.3803 7.75733 30.1083 7.584C30.8363 7.41067 31.573 7.324 32.3183 7.324C33.081 7.324 33.731 7.41067 34.2683 7.584C34.8056 7.75733 35.2043 7.95667 35.4643 8.182C35.7416 8.39 35.9496 8.68467 36.0883 9.066C36.2443 9.43 36.331 9.72467 36.3483 9.95C36.3656 10.1753 36.3743 10.4613 36.3743 10.808ZM28.9643 17.594C28.9643 18.8767 29.545 19.518 30.7063 19.518C31.729 19.518 32.7603 19.0847 33.8003 18.218C33.9216 18.114 33.9823 17.4813 33.9823 16.32C33.9823 15.1587 33.9736 14.318 33.9563 13.798C33.6443 13.902 33.2456 14.032 32.7603 14.188C32.2923 14.344 31.9543 14.4567 31.7463 14.526C31.5556 14.5953 31.2956 14.6907 30.9663 14.812C30.637 14.916 30.4116 15.0027 30.2903 15.072C30.1863 15.1413 30.0303 15.228 29.8223 15.332C29.6316 15.436 29.5103 15.54 29.4583 15.644C29.4063 15.7307 29.3283 15.8433 29.2243 15.982C29.1203 16.1033 29.0596 16.2507 29.0423 16.424C28.9903 16.9093 28.9643 17.2993 28.9643 17.594ZM38.6763 21V20.116C38.815 20.0987 38.997 20.0727 39.2223 20.038C39.4476 19.986 39.595 19.96 39.6643 19.96C39.7336 19.9427 39.8376 19.908 39.9763 19.856C40.1323 19.804 40.2276 19.7607 40.2623 19.726C40.297 19.6913 40.3576 19.622 40.4443 19.518C40.531 19.414 40.5743 19.31 40.5743 19.206C40.5916 19.102 40.6176 18.9633 40.6523 18.79C40.687 18.5993 40.7043 18.4 40.7043 18.192V12.602C40.7043 10.8167 40.6783 7.96533 40.6263 4.048L40.6003 2.8C40.583 2.36667 40.479 2.08933 40.2883 1.968C40.0976 1.84667 39.7163 1.786 39.1443 1.786H38.8063L38.7543 0.928C40.037 0.772 40.9903 0.624666 41.6143 0.485999C42.2383 0.329999 42.585 0.251999 42.6543 0.251999C42.949 0.251999 43.0963 0.381999 43.0963 0.641999C43.131 2.06333 43.1483 3.84 43.1483 5.972C43.1483 8.104 43.105 10.3833 43.0183 12.81C42.9316 15.2193 42.8883 17.126 42.8883 18.53C42.8883 19.1887 42.9836 19.596 43.1743 19.752C43.3823 19.8907 43.9283 20.012 44.8123 20.116V21H38.6763ZM45.831 14.5L46.195 12.784H51.681L51.967 13.07L51.655 14.5H45.831ZM62.1988 21.156L56.7648 20.896C55.2915 20.896 54.0868 20.9307 53.1508 21V20.038C53.6708 20.0033 54.0695 19.96 54.3468 19.908C54.6415 19.856 54.9015 19.7433 55.1268 19.57C55.3695 19.3967 55.4908 19.154 55.4908 18.842C55.4908 12.8447 55.4301 7.83533 55.3088 3.814C55.2915 3.43267 55.1528 3.18133 54.8928 3.06C54.6501 2.92133 54.1908 2.83467 53.5148 2.8L53.1508 2.774V1.812C54.0868 1.88133 55.3261 1.916 56.8688 1.916C58.4288 1.916 59.7201 1.87267 60.7428 1.786C61.7655 1.69933 62.4588 1.656 62.8228 1.656H63.3688C66.1941 1.656 68.2568 2.34933 69.5568 3.736C70.8568 5.12267 71.5068 7.33267 71.5068 10.366C71.5068 11.926 71.3161 13.3387 70.9348 14.604C70.5708 15.8693 70.0855 16.9007 69.4788 17.698C68.8895 18.4953 68.2048 19.1627 67.4248 19.7C65.9861 20.6707 64.4261 21.156 62.7448 21.156H62.1988ZM58.0128 17.36C58.0128 18.2267 58.3508 18.8073 59.0268 19.102C59.7201 19.3967 61.0981 19.544 63.1608 19.544C64.4261 19.544 65.3621 19.3187 65.9688 18.868C66.5755 18.4 67.1995 17.5853 67.8408 16.424C68.4995 15.2627 68.8288 13.5207 68.8288 11.198C68.8288 8.35533 68.2655 6.27533 67.1388 4.958C66.0295 3.62333 64.2701 2.956 61.8608 2.956C60.1968 2.956 59.0788 3.05133 58.5068 3.242L58.2208 3.528C58.0821 7.20267 58.0128 11.8133 58.0128 17.36ZM73.9343 10.626C74.2117 9.98467 74.879 9.29133 75.9363 8.546C76.9937 7.78333 77.947 7.402 78.7963 7.402C79.663 7.402 80.3997 7.49733 81.0063 7.688C81.613 7.87867 82.0897 8.16467 82.4363 8.546C82.783 8.91 83.0603 9.274 83.2683 9.638C83.4937 9.98467 83.641 10.4267 83.7103 10.964C83.849 11.8307 83.9183 12.4893 83.9183 12.94V13.694C83.3637 14.0407 82.4537 14.214 81.1883 14.214H75.8583C75.8583 16.0687 75.997 17.256 76.2743 17.776C76.6903 18.5387 77.2103 19.0153 77.8343 19.206C78.233 19.3273 78.701 19.388 79.2383 19.388C80.7463 19.388 82.1243 18.7727 83.3723 17.542L83.9443 18.14C83.875 18.2093 83.7103 18.3827 83.4503 18.66C83.1903 18.92 83.017 19.0933 82.9303 19.18C82.8437 19.2667 82.679 19.4313 82.4363 19.674C82.1937 19.8993 82.003 20.0553 81.8643 20.142C81.743 20.2287 81.561 20.3587 81.3183 20.532C81.093 20.7053 80.8937 20.8267 80.7203 20.896C80.5643 20.9653 80.365 21.052 80.1223 21.156C79.7237 21.312 79.2557 21.39 78.7183 21.39C77.6783 21.39 76.7857 21.1907 76.0403 20.792C75.3123 20.376 74.7663 19.8213 74.4023 19.128C73.709 17.8627 73.3623 16.3547 73.3623 14.604C73.3623 12.8533 73.553 11.5273 73.9343 10.626ZM75.9103 13.044H77.3923C79.6977 13.044 81.067 12.888 81.5003 12.576C81.5003 11.8307 81.379 11.1893 81.1363 10.652C80.6857 9.612 79.8883 9.092 78.7443 9.092C77.6003 9.092 76.8377 9.38667 76.4563 9.976C76.0923 10.548 75.9103 11.5707 75.9103 13.044ZM95.4311 7.766L97.1471 7.662C97.3897 7.662 97.5111 7.792 97.5111 8.052C97.5111 8.104 97.4937 8.156 97.4591 8.208C97.4417 8.24267 97.3984 8.312 97.3291 8.416C97.2771 8.52 97.1991 8.65 97.0951 8.806C97.0084 8.94467 96.8784 9.17867 96.7051 9.508C96.5491 9.82 96.3671 10.184 96.1591 10.6C95.2231 12.5067 94.2004 14.994 93.0911 18.062C92.4844 19.7433 92.1117 20.6793 91.9731 20.87C91.8517 21.0607 91.7391 21.1907 91.6351 21.26C91.4791 21.3467 91.2277 21.39 90.8811 21.39C90.5517 21.39 90.3004 21.2427 90.1271 20.948C89.9711 20.636 89.7371 19.9687 89.4251 18.946C89.1304 17.906 88.9051 17.152 88.7491 16.684C88.6104 16.1987 88.4024 15.4793 88.1251 14.526C87.8651 13.5553 87.6484 12.784 87.4751 12.212C86.9551 10.4267 86.4697 9.38667 86.0191 9.092C85.8457 8.97067 85.6117 8.90133 85.3171 8.884C85.0224 8.86667 84.8404 8.84933 84.7711 8.832L84.7191 7.974C85.9151 7.818 86.8164 7.662 87.4231 7.506C88.0297 7.33267 88.3677 7.246 88.4371 7.246C88.7317 7.246 88.8791 7.376 88.8791 7.636C88.8791 8.13867 89.5551 10.86 90.9071 15.8L91.6091 18.27C93.4464 13.4167 94.3651 10.4613 94.3651 9.404C94.3651 8.936 94.2091 8.702 93.8971 8.702C93.5851 8.702 93.4291 8.52867 93.4291 8.182C93.4291 7.87 93.7237 7.714 94.3131 7.714L95.4311 7.766ZM98.3601 10.626C98.6375 9.98467 99.3048 9.29133 100.362 8.546C101.419 7.78333 102.373 7.402 103.222 7.402C104.089 7.402 104.825 7.49733 105.432 7.688C106.039 7.87867 106.515 8.16467 106.862 8.546C107.209 8.91 107.486 9.274 107.694 9.638C107.919 9.98467 108.067 10.4267 108.136 10.964C108.275 11.8307 108.344 12.4893 108.344 12.94V13.694C107.789 14.0407 106.879 14.214 105.614 14.214H100.284C100.284 16.0687 100.423 17.256 100.7 17.776C101.116 18.5387 101.636 19.0153 102.26 19.206C102.659 19.3273 103.127 19.388 103.664 19.388C105.172 19.388 106.55 18.7727 107.798 17.542L108.37 18.14C108.301 18.2093 108.136 18.3827 107.876 18.66C107.616 18.92 107.443 19.0933 107.356 19.18C107.269 19.2667 107.105 19.4313 106.862 19.674C106.619 19.8993 106.429 20.0553 106.29 20.142C106.169 20.2287 105.987 20.3587 105.744 20.532C105.519 20.7053 105.319 20.8267 105.146 20.896C104.99 20.9653 104.791 21.052 104.548 21.156C104.149 21.312 103.681 21.39 103.144 21.39C102.104 21.39 101.211 21.1907 100.466 20.792C99.7381 20.376 99.1921 19.8213 98.8281 19.128C98.1348 17.8627 97.7881 16.3547 97.7881 14.604C97.7881 12.8533 97.9788 11.5273 98.3601 10.626ZM100.336 13.044H101.818C104.123 13.044 105.493 12.888 105.926 12.576C105.926 11.8307 105.805 11.1893 105.562 10.652C105.111 9.612 104.314 9.092 103.17 9.092C102.026 9.092 101.263 9.38667 100.882 9.976C100.518 10.548 100.336 11.5707 100.336 13.044ZM109.821 21V20.116C109.96 20.0987 110.142 20.0727 110.367 20.038C110.592 19.986 110.74 19.96 110.809 19.96C110.878 19.9427 110.982 19.908 111.121 19.856C111.277 19.804 111.372 19.7607 111.407 19.726C111.442 19.6913 111.502 19.622 111.589 19.518C111.676 19.414 111.719 19.31 111.719 19.206C111.736 19.102 111.762 18.9633 111.797 18.79C111.832 18.5993 111.849 18.4 111.849 18.192V12.602C111.849 10.8167 111.823 7.96533 111.771 4.048L111.745 2.8C111.728 2.36667 111.624 2.08933 111.433 1.968C111.242 1.84667 110.861 1.786 110.289 1.786H109.951L109.899 0.928C111.182 0.772 112.135 0.624666 112.759 0.485999C113.383 0.329999 113.73 0.251999 113.799 0.251999C114.094 0.251999 114.241 0.381999 114.241 0.641999C114.276 2.06333 114.293 3.84 114.293 5.972C114.293 8.104 114.25 10.3833 114.163 12.81C114.076 15.2193 114.033 17.126 114.033 18.53C114.033 19.1887 114.128 19.596 114.319 19.752C114.527 19.8907 115.073 20.012 115.957 20.116V21H109.821ZM118.588 19.466C118.224 18.9633 117.92 18.27 117.678 17.386C117.435 16.4847 117.314 15.358 117.314 14.006C117.314 12.6367 117.669 11.3713 118.38 10.21C118.848 9.482 119.662 8.82333 120.824 8.234C121.985 7.62733 122.947 7.324 123.71 7.324C125.252 7.324 126.57 7.818 127.662 8.806C128.754 9.794 129.3 11.3367 129.3 13.434C129.3 15.514 128.918 17.1347 128.156 18.296C127.133 19.6653 126.136 20.5667 125.166 21C124.507 21.2947 123.822 21.442 123.112 21.442C122.401 21.442 121.82 21.39 121.37 21.286C120.919 21.1993 120.434 21 119.914 20.688C119.411 20.376 118.969 19.9687 118.588 19.466ZM119.784 14.344C119.784 16.216 120.139 17.5593 120.85 18.374C121.578 19.1887 122.626 19.596 123.996 19.596C124.516 19.596 124.897 19.5527 125.14 19.466C126.336 18.998 126.934 17.1953 126.934 14.058C126.934 12.5847 126.734 11.51 126.336 10.834C125.954 10.1407 125.287 9.64667 124.334 9.352C123.848 9.23067 123.406 9.17 123.008 9.17C122.609 9.17 122.314 9.17867 122.124 9.196C121.95 9.21333 121.716 9.26533 121.422 9.352C121.127 9.43867 120.902 9.586 120.746 9.794C120.59 9.98467 120.425 10.2533 120.252 10.6C119.94 11.224 119.784 12.472 119.784 14.344ZM134.879 19.518C134.81 21.6673 134.775 23.054 134.775 23.678C134.792 24.302 134.888 24.7093 135.061 24.9C135.234 25.108 135.659 25.2727 136.335 25.394V26.278H131.031V25.446C131.586 25.3767 131.976 25.2553 132.201 25.082C132.426 24.9087 132.539 24.6573 132.539 24.328C132.522 22.6987 132.513 17.9927 132.513 10.21C132.513 9.586 132.418 9.196 132.227 9.04C132.054 8.884 131.577 8.806 130.797 8.806L130.745 7.948C132.097 7.82667 133.068 7.69667 133.657 7.558C134.264 7.402 134.593 7.324 134.645 7.324C134.957 7.324 135.113 7.46267 135.113 7.74C135.113 7.75733 135.096 7.98267 135.061 8.416C135.044 8.832 135.035 9.092 135.035 9.196C135.174 9.12667 135.512 8.91 136.049 8.546C137.28 7.73133 138.372 7.324 139.325 7.324C139.828 7.324 140.356 7.46267 140.911 7.74C141.466 8.01733 141.925 8.34667 142.289 8.728C142.653 9.092 142.974 9.664 143.251 10.444C143.546 11.224 143.693 12.1253 143.693 13.148C143.693 15.644 143.173 17.6027 142.133 19.024C141.11 20.4453 139.793 21.156 138.181 21.156C137.384 21.156 136.82 21.0953 136.491 20.974C136.162 20.8353 135.919 20.7227 135.763 20.636C135.607 20.5493 135.477 20.4453 135.373 20.324C135.269 20.1853 135.191 20.0813 135.139 20.012C135.087 19.9253 135.035 19.83 134.983 19.726C134.931 19.6047 134.896 19.5353 134.879 19.518ZM135.009 10.288L134.879 15.124C134.879 16.944 135.061 18.2007 135.425 18.894C135.806 19.57 136.517 19.908 137.557 19.908C138.597 19.908 139.464 19.4227 140.157 18.452C140.85 17.464 141.197 15.956 141.197 13.928C141.197 10.86 140.2 9.326 138.207 9.326C137.323 9.326 136.257 9.64667 135.009 10.288ZM145.714 10.626C145.991 9.98467 146.658 9.29133 147.716 8.546C148.773 7.78333 149.726 7.402 150.576 7.402C151.442 7.402 152.179 7.49733 152.786 7.688C153.392 7.87867 153.869 8.16467 154.216 8.546C154.562 8.91 154.84 9.274 155.048 9.638C155.273 9.98467 155.42 10.4267 155.49 10.964C155.628 11.8307 155.698 12.4893 155.698 12.94V13.694C155.143 14.0407 154.233 14.214 152.968 14.214H147.638C147.638 16.0687 147.776 17.256 148.054 17.776C148.47 18.5387 148.99 19.0153 149.614 19.206C150.012 19.3273 150.48 19.388 151.018 19.388C152.526 19.388 153.904 18.7727 155.152 17.542L155.724 18.14C155.654 18.2093 155.49 18.3827 155.23 18.66C154.97 18.92 154.796 19.0933 154.71 19.18C154.623 19.2667 154.458 19.4313 154.216 19.674C153.973 19.8993 153.782 20.0553 153.644 20.142C153.522 20.2287 153.34 20.3587 153.098 20.532C152.872 20.7053 152.673 20.8267 152.5 20.896C152.344 20.9653 152.144 21.052 151.902 21.156C151.503 21.312 151.035 21.39 150.498 21.39C149.458 21.39 148.565 21.1907 147.82 20.792C147.092 20.376 146.546 19.8213 146.182 19.128C145.488 17.8627 145.142 16.3547 145.142 14.604C145.142 12.8533 145.332 11.5273 145.714 10.626ZM147.69 13.044H149.172C151.477 13.044 152.846 12.888 153.28 12.576C153.28 11.8307 153.158 11.1893 152.916 10.652C152.465 9.612 151.668 9.092 150.524 9.092C149.38 9.092 148.617 9.38667 148.236 9.976C147.872 10.548 147.69 11.5707 147.69 13.044ZM161.542 11.588L161.516 18.634C161.516 19.1713 161.672 19.5267 161.984 19.7C162.296 19.856 162.764 19.9773 163.388 20.064C164.03 20.1507 164.376 20.194 164.428 20.194V21H157.148V20.116C157.564 20.064 157.842 20.038 157.98 20.038C158.119 20.0207 158.292 19.9687 158.5 19.882C158.726 19.778 158.856 19.6913 158.89 19.622C158.925 19.5353 158.977 19.362 159.046 19.102C159.116 18.842 159.15 18.582 159.15 18.322V16.268C159.15 12.784 159.09 10.7387 158.968 10.132C158.83 9.456 158.327 9.118 157.46 9.118L157.408 8.13C158.102 8.06067 158.812 7.896 159.54 7.636C160.268 7.376 160.736 7.246 160.944 7.246C161.152 7.246 161.3 7.35 161.386 7.558C161.473 7.74867 161.516 8.104 161.516 8.624L161.542 9.612C163.068 8.13867 164.272 7.402 165.156 7.402C165.798 7.402 166.24 7.48 166.482 7.636C166.725 7.792 166.846 8.078 166.846 8.494C166.846 8.63267 166.708 9.56867 166.43 11.302H165.494C165.408 10.002 164.966 9.352 164.168 9.352C163.718 9.352 163.163 9.56 162.504 9.976C161.863 10.3747 161.542 10.912 161.542 11.588Z" fill="white"/>
</svg>
