<svg width="30" height="31" viewBox="0 0 30 31" fill="none" xmlns="http://www.w3.org/2000/svg">
<path d="M15.0033 7.42837C10.7468 7.42837 7.31344 10.8625 7.31344 15.12C7.31344 19.3775 10.7468 22.8116 15.0033 22.8116C19.2599 22.8116 22.6933 19.3775 22.6933 15.12C22.6933 10.8625 19.2599 7.42837 15.0033 7.42837ZM15.0033 20.1206C12.2527 20.1206 10.0039 17.878 10.0039 15.12C10.0039 12.362 12.246 10.1194 15.0033 10.1194C17.7607 10.1194 20.0028 12.362 20.0028 15.12C20.0028 17.878 17.754 20.1206 15.0033 20.1206ZM24.8015 7.11375C24.8015 8.11118 23.9983 8.90779 23.0078 8.90779C22.0106 8.90779 21.2142 8.10449 21.2142 7.11375C21.2142 6.12301 22.0173 5.3197 23.0078 5.3197C23.9983 5.3197 24.8015 6.12301 24.8015 7.11375ZM29.8946 8.93457C29.7808 6.53135 29.232 4.4026 27.4718 2.64872C25.7184 0.894847 23.5901 0.345924 21.1874 0.225429C18.7111 0.0848506 11.2889 0.0848506 8.8126 0.225429C6.41662 0.33923 4.28834 0.888153 2.52817 2.64203C0.767987 4.39591 0.225878 6.52466 0.10541 8.92787C-0.0351366 11.4047 -0.0351366 18.8286 0.10541 21.3054C0.219186 23.7086 0.767987 25.8374 2.52817 27.5913C4.28834 29.3451 6.40993 29.8941 8.8126 30.0146C11.2889 30.1551 18.7111 30.1551 21.1874 30.0146C23.5901 29.9008 25.7184 29.3518 27.4718 27.5913C29.2253 25.8374 29.7741 23.7086 29.8946 21.3054C30.0351 18.8286 30.0351 11.4114 29.8946 8.93457ZM26.6955 23.963C26.1735 25.2751 25.1629 26.2859 23.8444 26.8147C21.8701 27.598 17.1852 27.4172 15.0033 27.4172C12.8215 27.4172 8.12995 27.5913 6.1623 26.8147C4.85053 26.2926 3.83993 25.2818 3.31121 23.963C2.52817 21.9882 2.70887 17.3023 2.70887 15.12C2.70887 12.9377 2.53486 8.24506 3.31121 6.27697C3.83324 4.96491 4.84384 3.95409 6.1623 3.42525C8.13664 2.64203 12.8215 2.82277 15.0033 2.82277C17.1852 2.82277 21.8767 2.64872 23.8444 3.42525C25.1562 3.9474 26.1668 4.95822 26.6955 6.27697C27.4785 8.25176 27.2978 12.9377 27.2978 15.12C27.2978 17.3023 27.4785 21.9949 26.6955 23.963Z" fill="black"/>
</svg>
