<svg width="16" height="16" viewBox="0 0 16 16" fill="none" xmlns="http://www.w3.org/2000/svg">
<path d="M0 8C0 12.4183 3.58171 16 8 16C12.4183 16 16 12.4183 16 8C16 3.58171 12.4183 0 8 0C3.58171 0 0 3.58171 0 8ZM5.44065 4.29187C6.70565 4.41226 9.77542 4.93319 11.1923 5.19832C11.7917 5.31045 11.9928 5.53129 12.0124 5.74503C12.0552 6.20955 11.7054 6.56239 11.4105 7.01235C10.9489 7.71645 10.6616 8.11423 10.2112 8.79771C9.69071 9.58755 9.40474 9.07552 8.937 8.62539C8.81464 8.50758 6.95281 6.46065 6.7839 6.42103C6.76277 6.4161 6.6839 6.41136 6.64248 6.45826C6.60106 6.50516 6.6151 6.57407 6.62635 6.6239C6.6424 6.69451 7.38586 7.81932 8.85674 9.99836C9.07597 10.3176 9.18279 10.6068 9.17719 10.8659C9.17103 11.1515 9.01571 11.701 8.8829 12.1095C8.72006 12.6105 8.63397 13.0087 8.35739 12.974C8.2133 12.9559 8.06599 12.7575 7.91545 12.3788C6.89937 10.0467 6.22947 8.49153 5.90577 7.71342C4.98168 5.49174 4.82116 5.0301 4.81581 4.72919C4.81471 4.663 4.8311 4.51503 4.90887 4.41919C4.96427 4.35544 5.04159 4.3148 5.12552 4.30532C5.22973 4.28908 5.33543 4.28457 5.44065 4.29187Z" fill="white"/>
</svg>
