<svg width="16" height="16" viewBox="0 0 16 16" fill="none" xmlns="http://www.w3.org/2000/svg">
<path d="M3.89693 7.99821C3.89693 10.2684 5.72805 12.0995 7.99821 12.0995C10.2684 12.0995 12.0995 10.2684 12.0995 7.99821C12.0995 5.72805 10.2684 3.89693 7.99821 3.89693C5.72805 3.89693 3.89693 5.72805 3.89693 7.99821ZM10.6646 7.99821C10.6646 9.46525 9.46882 10.6646 7.99821 10.6646C6.52761 10.6646 5.33185 9.46882 5.33185 7.99821C5.33185 6.52761 6.52761 5.33185 7.99821 5.33185C9.46882 5.33185 10.6646 6.53118 10.6646 7.99821ZM3.72917 2.77256C4.26101 2.77256 4.68578 3.20089 4.68578 3.72917C4.68578 4.26101 4.25745 4.68578 3.72917 4.68578C3.20089 4.68578 2.77256 4.25744 2.77256 3.72917C2.77256 3.20089 3.20089 2.77256 3.72917 2.77256ZM4.70006 0.0562172C3.41863 0.116898 2.28355 0.409592 1.34835 1.34835C0.413162 2.28355 0.120468 3.41863 0.0562186 4.70006C-0.0187395 6.02075 -0.0187395 9.97925 0.0562186 11.2999C0.116899 12.5778 0.409593 13.7129 1.34479 14.6516C2.27998 15.5904 3.41506 15.8795 4.69649 15.9438C6.01718 16.0187 9.97568 16.0187 11.2964 15.9438C12.5778 15.8831 13.7129 15.5904 14.6481 14.6516C15.5833 13.7129 15.876 12.5814 15.9402 11.2999C16.0152 9.97925 16.0152 6.02075 15.9402 4.70006C15.8795 3.41863 15.5868 2.28355 14.6481 1.34835C13.7129 0.413161 12.5778 0.120467 11.2964 0.0562172C9.97568 -0.0187416 6.02075 -0.0187416 4.70006 0.0562172ZM12.7134 1.76241C13.413 2.04082 13.952 2.57981 14.234 3.28299C14.6516 4.33597 14.5553 6.83458 14.5553 7.99821C14.5553 9.16185 14.6481 11.664 14.234 12.7134C13.9556 13.4131 13.4166 13.952 12.7134 14.234C11.6605 14.6516 9.16185 14.5553 7.99821 14.5553C6.83458 14.5553 4.3324 14.6481 3.28299 14.234C2.58338 13.9556 2.04439 13.4166 1.76241 12.7134C1.34479 11.6605 1.44116 9.16185 1.44116 7.99821C1.44116 6.83458 1.34835 4.3324 1.76241 3.28299C2.04083 2.58338 2.57981 2.04439 3.28299 1.76241C4.33597 1.34478 6.83458 1.44116 7.99821 1.44116C9.16185 1.44116 11.664 1.34478 12.7134 1.76241Z" fill="white"/>
</svg>
