<svg width="40" height="40" viewBox="0 0 40 40" fill="none" xmlns="http://www.w3.org/2000/svg">
<g clip-path="url(#clip0_23_61)">
<path d="M0 12.5L6.55671e-07 27.5C9.57388e-07 34.4025 5.59749 40 12.5 40H27.5C34.4025 40 40 34.4025 40 27.5V12.5C40 5.59751 34.4025 -3.01716e-07 27.5 0L12.5 6.55667e-07C5.59749 9.57387e-07 -3.01724e-07 5.59751 0 12.5ZM27.5 3.75C32.3249 3.75 36.25 7.675 36.25 12.5V27.5C36.25 32.3249 32.3249 36.25 27.5 36.25H12.5C7.675 36.25 3.75 32.3249 3.75 27.5V12.5C3.75 7.675 7.675 3.75 12.5 3.75H27.5Z" fill="white"/>
<path d="M10 20C10 25.5225 14.4775 30 20 30C25.5225 30 30 25.5225 30 20C30 14.4775 25.5225 10 20 10C14.4775 10 10 14.4775 10 20ZM26.25 20C26.25 23.4449 23.4449 26.25 20 26.25C16.5525 26.25 13.75 23.4451 13.75 20C13.75 16.5551 16.5525 13.75 20 13.75C23.4449 13.75 26.25 16.5549 26.25 20Z" fill="white"/>
<path d="M10.5825 9.2495C10.5825 8.51358 9.98589 7.91699 9.24997 7.91699C8.51405 7.91699 7.91748 8.51358 7.91748 9.2495C7.91748 9.98542 8.51405 10.582 9.24997 10.582C9.98589 10.582 10.5825 9.98542 10.5825 9.2495Z" fill="white"/>
</g>
<defs>
<clipPath id="clip0_23_61">
<rect width="40" height="40" fill="white"/>
</clipPath>
</defs>
</svg>
