<svg width="21" height="27" viewBox="0 0 21 27" fill="none" xmlns="http://www.w3.org/2000/svg">
<g clip-path="url(#clip0_2_12)">
<path d="M11.9997 26C14.6678 22.6562 20.7531 14.5521 20.7531 10C20.7531 4.47917 16.2802 0 10.767 0C5.25384 0 0.780884 4.47917 0.780884 10C0.780884 14.5521 6.86618 22.6562 9.53435 26C10.1741 26.7969 11.3599 26.7969 11.9997 26ZM10.767 13.3333C8.93102 13.3333 7.4383 11.8385 7.4383 10C7.4383 8.16146 8.93102 6.66667 10.767 6.66667C12.603 6.66667 14.0957 8.16146 14.0957 10C14.0957 11.8385 12.603 13.3333 10.767 13.3333Z" fill="#7DAFC3"/>
</g>
<defs>
<clipPath id="clip0_2_12">
<rect width="19.9723" height="26.6667" fill="white" transform="translate(0.780884)"/>
</clipPath>
</defs>
</svg>
