<svg width="83" height="62" viewBox="0 0 83 62" fill="none" xmlns="http://www.w3.org/2000/svg">
<path d="M18.6 0.199999C24.8667 0.199999 29.6 2.46666 32.8 6.99999C36.1333 11.4 37.8 16.6667 37.8 22.8C37.8 31.0667 35.3333 38.7333 30.4 45.8C25.6 52.8667 19.5333 58.1333 12.2 61.6L0.4 52.2C5.73333 50.0667 10.4 47.1333 14.4 43.4C18.4 39.5333 21.1333 35.5333 22.6 31.4L21.6 30.8C20.9333 31.3333 20.1333 31.7333 19.2 32C18.2667 32.2667 16.9333 32.4 15.2 32.4C12.1333 32.4 9 31.2 5.8 28.8C2.73333 26.2667 1.2 22.4667 1.2 17.4C1.2 12.0667 2.93333 7.86667 6.4 4.8C9.86667 1.73333 13.9333 0.199999 18.6 0.199999ZM63.4 0.199999C69.6667 0.199999 74.4 2.46666 77.6 6.99999C80.9333 11.4 82.6 16.6667 82.6 22.8C82.6 31.0667 80.1333 38.7333 75.2 45.8C70.4 52.8667 64.3333 58.1333 57 61.6L45.2 52.2C50.5333 50.0667 55.2 47.1333 59.2 43.4C63.2 39.5333 65.9333 35.5333 67.4 31.4L66.4 30.8C65.7333 31.3333 64.9333 31.7333 64 32C63.0667 32.2667 61.7333 32.4 60 32.4C56.9333 32.4 53.8 31.2 50.6 28.8C47.5333 26.2667 46 22.4667 46 17.4C46 12.0667 47.7333 7.86667 51.2 4.8C54.6667 1.73333 58.7333 0.199999 63.4 0.199999Z" fill="#FBC710"/>
</svg>
